<?xml version="1.0" encoding="UTF-8" standalone="no"?>
<svg
   xmlns:dc="http://purl.org/dc/elements/1.1/"
   xmlns:cc="http://creativecommons.org/ns#"
   xmlns:rdf="http://www.w3.org/1999/02/22-rdf-syntax-ns#"
   xmlns:svg="http://www.w3.org/2000/svg"
   xmlns="http://www.w3.org/2000/svg"
   xmlns:sodipodi="http://sodipodi.sourceforge.net/DTD/sodipodi-0.dtd"
   xmlns:inkscape="http://www.inkscape.org/namespaces/inkscape"
   sodipodi:docname="alphabeta.svg"
   inkscape:version="1.0 (4035a4fb49, 2020-05-01)"
   id="svg8"
   version="1.1"
   viewBox="0 0 210 297"
   height="297mm"
   width="210mm">
  <defs
     id="defs2" />
  <sodipodi:namedview
     inkscape:window-maximized="1"
     inkscape:window-y="-9"
     inkscape:window-x="-9"
     inkscape:window-height="1001"
     inkscape:window-width="1920"
     inkscape:snap-global="false"
     showgrid="false"
     inkscape:document-rotation="0"
     inkscape:current-layer="layer1"
     inkscape:document-units="mm"
     inkscape:cy="314.78576"
     inkscape:cx="395.01865"
     inkscape:zoom="1.979899"
     inkscape:pageshadow="2"
     inkscape:pageopacity="0.0"
     borderopacity="1.0"
     bordercolor="#666666"
     pagecolor="#ffffff"
     id="base" />
  <metadata
     id="metadata5">
    <rdf:RDF>
      <cc:Work
         rdf:about="">
        <dc:format>image/svg+xml</dc:format>
        <dc:type
           rdf:resource="http://purl.org/dc/dcmitype/StillImage" />
        <dc:title></dc:title>
      </cc:Work>
    </rdf:RDF>
  </metadata>
  <g
     id="layer1"
     inkscape:groupmode="layer"
     inkscape:label="Layer 1">
    <rect
       y="54.617558"
       x="44.88467"
       height="70.209076"
       width="97.51786"
       id="rect879"
       style="opacity:1;fill:#000000;stroke-width:1.5;stroke-linecap:square;stroke-miterlimit:4;stroke-dasharray:none" />
    <g
       style="fill:#ffffff"
       id="g869">
      <path
         id="path837"
         style="font-style:normal;font-variant:normal;font-weight:normal;font-stretch:normal;font-size:22.5778px;line-height:1.25;font-family:Calibri;-inkscape-font-specification:'Calibri, Normal';font-variant-ligatures:normal;font-variant-caps:normal;font-variant-numeric:normal;font-variant-east-asian:normal;fill:#ffffff;fill-opacity:1;stroke:none;stroke-width:0.361264"
         d="m 92.956795,84.03752 q 0.121067,0.450655 0.121495,0.684335 0.01498,0.229777 -0.06336,0.344337 -0.06379,0.11066 -0.21871,0.230207 -0.154924,0.119547 -0.404877,0.233453 -0.246047,0.128449 -0.499905,0.227824 -0.249956,0.113905 -0.5407,0.192013 -0.537879,0.144499 -1.081831,0.150352 -0.543952,0.0059 -1.036915,-0.204608 -0.482329,-0.228913 -0.903037,-0.692586 -0.424613,-0.478213 -0.738349,-1.29794 -0.108271,0.699305 -0.403796,1.339808 -0.295523,0.640501 -0.771567,1.189224 -0.465412,0.530277 -1.108524,0.921258 -0.639206,0.405518 -1.438755,0.620314 -1.453723,0.390542 -2.630368,0.129945 -1.176642,-0.260595 -2.084669,-1.029771 -0.893489,-0.773082 -1.546352,-1.984885 -0.652864,-1.211799 -1.051214,-2.694597 -0.453027,-1.686321 -0.43826,-3.139824 0.01477,-1.453505 0.498406,-2.61214 0.498181,-1.162536 1.451785,-1.964246 0.949698,-0.816245 2.388884,-1.202878 0.930385,-0.249947 1.826483,-0.163366 0.892194,0.07204 1.673514,0.485591 0.781317,0.413557 1.422682,1.17644 0.637463,0.748346 1.076825,1.86164 -0.03406,-1.113074 -0.110209,-1.918696 -0.06161,-0.809527 -0.140155,-1.333953 -0.06791,-0.542868 -0.113036,-0.826885 -0.03451,-0.302462 0.008,-0.376232 0.03579,-0.04079 0.100665,-0.08939 0.06097,-0.06313 0.169451,-0.123455 0.123025,-0.06423 0.293565,-0.125622 0.18508,-0.0653 0.432215,-0.131694 0.348893,-0.09373 0.574762,-0.123234 0.236498,-0.04796 0.382958,-0.02495 0.146456,0.02301 0.228038,0.0946 0.08159,0.07161 0.108924,0.17336 0.06249,0.232597 0.122586,0.746391 0.0562,0.499255 0.105003,1.203117 0.0449,0.689325 0.06682,1.525106 0.018,0.821243 0.01865,1.693911 0.01127,0.854222 -0.02887,1.691088 -0.04405,0.822328 -0.133884,1.532262 0.34649,1.231763 0.680412,1.952551 0.33001,0.706249 0.661324,1.069248 0.341949,0.344557 0.657209,0.415727 0.311358,0.05662 0.616637,-0.02538 0.261672,-0.0703 0.468016,-0.172487 0.202435,-0.116733 0.35063,-0.203299 0.162732,-0.09048 0.26731,-0.165337 0.11522,-0.0933 0.202437,-0.116733 0.07268,-0.01952 0.128007,0.01236 0.05141,0.01735 0.107836,0.11132 0.07094,0.09005 0.136261,0.275122 0.06141,0.17054 0.139516,0.461285 z m -7.203693,-4.361655 q -0.367108,-1.366501 -0.919513,-2.262388 -0.53787,-0.899793 -1.167088,-1.385385 -0.633126,-0.500127 -1.317891,-0.612308 -0.674136,-0.130622 -1.328311,0.04512 -0.915846,0.246041 -1.452859,0.857901 -0.522478,0.607954 -0.748788,1.448073 -0.21567,0.821678 -0.158622,1.788292 0.05706,0.966617 0.314812,1.926074 0.277283,1.032145 0.680413,1.952549 0.399223,0.905866 0.976366,1.545726 0.573238,0.625321 1.30487,0.911948 0.742263,0.268182 1.701721,0.01046 0.857698,-0.230419 1.406426,-0.798667 0.563269,-0.572154 0.811925,-1.387104 0.259301,-0.83339 0.238036,-1.8408 -0.02516,-1.021944 -0.325877,-2.141311 z" />
      <path
         id="path839"
         style="font-style:normal;font-variant:normal;font-weight:normal;font-stretch:normal;font-size:22.5778px;line-height:1.25;font-family:Calibri;-inkscape-font-specification:'Calibri, Normal';font-variant-ligatures:normal;font-variant-caps:normal;font-variant-numeric:normal;font-variant-east-asian:normal;fill:#ffffff;fill-opacity:1;stroke:none;stroke-width:0.316734"
         d="m 106.37731,98.989984 q -0.37619,1.098746 -1.02176,1.965756 -0.64132,0.85453 -1.53851,1.35642 -0.89721,0.50187 -2.05391,0.58013 -1.13993,0.07 -2.538333,-0.40875 -0.486934,-0.16673 -0.910775,-0.39554 -0.428111,-0.21632 -0.784905,-0.47798 -0.34431,-0.25738 -0.621577,-0.5476 -0.272991,-0.30271 -0.483216,-0.62577 -0.09079,0.38739 -0.219371,0.8037 -0.120374,0.43306 -0.25717,0.83261 l -1.124292,3.28375 q -0.0342,0.0998 -0.109799,0.1577 -0.0756,0.0578 -0.205063,0.0693 -0.129473,0.012 -0.337795,-0.032 -0.208321,-0.0435 -0.520464,-0.1503 -0.299659,-0.10259 -0.49088,-0.19597 -0.191222,-0.0934 -0.298978,-0.18606 -0.09527,-0.0885 -0.119567,-0.18043 -0.01185,-0.0877 0.0224,-0.18762 l 5.578716,-16.293904 q 0.436037,-1.273544 1.123352,-2.14022 0.691597,-0.879164 1.559197,-1.335375 0.8719,-0.468696 1.89485,-0.522991 1.02295,-0.0543 2.10919,0.317615 1.1487,0.393291 1.86555,1.029308 0.7336,0.627806 1.06957,1.398457 0.34845,0.774925 0.34167,1.609568 0.006,0.838917 -0.27215,1.650489 -0.45314,1.323489 -1.39445,2.117151 -0.92453,0.785455 -2.2396,0.837378 0.82303,0.407337 1.3355,1.029176 0.52494,0.626113 0.75675,1.375049 0.24428,0.753208 0.20399,1.604273 -0.036,0.838578 -0.31817,1.662637 z m -2.25306,-0.590064 q 0.25222,-0.736659 0.2744,-1.412585 0.0389,-0.684135 -0.19422,-1.266141 -0.23316,-0.582007 -0.78443,-1.04974 -0.53879,-0.463461 -1.43777,-0.771253 l -1.07377,-0.36764 q -0.21226,-0.07268 -0.25623,-0.310918 -0.0315,-0.233969 0.12241,-0.683456 0.077,-0.224743 0.15749,-0.378507 0.093,-0.149491 0.17718,-0.232277 0.0842,-0.08278 0.17615,-0.107081 0.0921,-0.0243 0.1919,0.0099 l 0.24972,0.0855 q 0.82405,0.282138 1.48389,0.229069 0.67662,-0.06128 1.18404,-0.361824 0.51171,-0.313027 0.86638,-0.819315 0.35471,-0.506279 0.56418,-1.11808 0.18381,-0.536887 0.22567,-1.066581 0.0419,-0.529692 -0.12135,-0.990105 -0.1507,-0.456131 -0.54,-0.82656 -0.38931,-0.370428 -1.03857,-0.592724 -0.6867,-0.235115 -1.28411,-0.160671 -0.59742,0.07445 -1.09699,0.433482 -0.48279,0.350824 -0.88844,0.965207 -0.38888,0.60617 -0.6753,1.442716 l -3.25318,9.501645 q 0.490072,0.809462 1.157654,1.344916 0.67185,0.522963 1.420995,0.779463 0.849031,0.29069 1.542061,0.26293 0.70977,-0.036 1.24646,-0.34045 0.54095,-0.31697 0.93771,-0.864648 0.40103,-0.56016 0.66607,-1.334277 z" />
      <path
         style="color:#000000;font-style:normal;font-variant:normal;font-weight:normal;font-stretch:normal;font-size:medium;line-height:normal;font-family:sans-serif;font-variant-ligatures:normal;font-variant-position:normal;font-variant-caps:normal;font-variant-numeric:normal;font-variant-alternates:normal;font-variant-east-asian:normal;font-feature-settings:normal;font-variation-settings:normal;text-indent:0;text-align:start;text-decoration:none;text-decoration-line:none;text-decoration-style:solid;text-decoration-color:#000000;letter-spacing:normal;word-spacing:normal;text-transform:none;writing-mode:lr-tb;direction:ltr;text-orientation:mixed;dominant-baseline:auto;baseline-shift:baseline;text-anchor:start;white-space:normal;shape-padding:0;shape-margin:0;inline-size:0;clip-rule:nonzero;display:inline;overflow:visible;visibility:visible;isolation:auto;mix-blend-mode:normal;color-interpolation:sRGB;color-interpolation-filters:linearRGB;solid-color:#000000;solid-opacity:1;vector-effect:none;fill:#ffffff;fill-opacity:1;fill-rule:nonzero;stroke:none;stroke-width:1.5;stroke-linecap:butt;stroke-linejoin:miter;stroke-miterlimit:4;stroke-dasharray:none;stroke-dashoffset:0;stroke-opacity:1;color-rendering:auto;image-rendering:auto;shape-rendering:auto;text-rendering:auto;enable-background:accumulate;stop-color:#000000;stop-opacity:1;opacity:1"
         d="M 100.35352 75.597656 L 85.074219 101.57422 L 86.367188 102.33594 L 101.64648 76.357422 L 100.35352 75.597656 z "
         id="path864" />
    </g>
    <g
       style="fill:#ff8080"
       transform="translate(0.56696429)"
       id="g877">
      <path
         d="m 92.956795,84.03752 q 0.121067,0.450655 0.121495,0.684335 0.01498,0.229777 -0.06336,0.344337 -0.06379,0.11066 -0.21871,0.230207 -0.154924,0.119547 -0.404877,0.233453 -0.246047,0.128449 -0.499905,0.227824 -0.249956,0.113905 -0.5407,0.192013 -0.537879,0.144499 -1.081831,0.150352 -0.543952,0.0059 -1.036915,-0.204608 -0.482329,-0.228913 -0.903037,-0.692586 -0.424613,-0.478213 -0.738349,-1.29794 -0.108271,0.699305 -0.403796,1.339808 -0.295523,0.640501 -0.771567,1.189224 -0.465412,0.530277 -1.108524,0.921258 -0.639206,0.405518 -1.438755,0.620314 -1.453723,0.390542 -2.630368,0.129945 -1.176642,-0.260595 -2.084669,-1.029771 -0.893489,-0.773082 -1.546352,-1.984885 -0.652864,-1.211799 -1.051214,-2.694597 -0.453027,-1.686321 -0.43826,-3.139824 0.01477,-1.453505 0.498406,-2.61214 0.498181,-1.162536 1.451785,-1.964246 0.949698,-0.816245 2.388884,-1.202878 0.930385,-0.249947 1.826483,-0.163366 0.892194,0.07204 1.673514,0.485591 0.781317,0.413557 1.422682,1.17644 0.637463,0.748346 1.076825,1.86164 -0.03406,-1.113074 -0.110209,-1.918696 -0.06161,-0.809527 -0.140155,-1.333953 -0.06791,-0.542868 -0.113036,-0.826885 -0.03451,-0.302462 0.008,-0.376232 0.03579,-0.04079 0.100665,-0.08939 0.06097,-0.06313 0.169451,-0.123455 0.123025,-0.06423 0.293565,-0.125622 0.18508,-0.0653 0.432215,-0.131694 0.348893,-0.09373 0.574762,-0.123234 0.236498,-0.04796 0.382958,-0.02495 0.146456,0.02301 0.228038,0.0946 0.08159,0.07161 0.108924,0.17336 0.06249,0.232597 0.122586,0.746391 0.0562,0.499255 0.105003,1.203117 0.0449,0.689325 0.06682,1.525106 0.018,0.821243 0.01865,1.693911 0.01127,0.854222 -0.02887,1.691088 -0.04405,0.822328 -0.133884,1.532262 0.34649,1.231763 0.680412,1.952551 0.33001,0.706249 0.661324,1.069248 0.341949,0.344557 0.657209,0.415727 0.311358,0.05662 0.616637,-0.02538 0.261672,-0.0703 0.468016,-0.172487 0.202435,-0.116733 0.35063,-0.203299 0.162732,-0.09048 0.26731,-0.165337 0.11522,-0.0933 0.202437,-0.116733 0.07268,-0.01952 0.128007,0.01236 0.05141,0.01735 0.107836,0.11132 0.07094,0.09005 0.136261,0.275122 0.06141,0.17054 0.139516,0.461285 z m -7.203693,-4.361655 q -0.367108,-1.366501 -0.919513,-2.262388 -0.53787,-0.899793 -1.167088,-1.385385 -0.633126,-0.500127 -1.317891,-0.612308 -0.674136,-0.130622 -1.328311,0.04512 -0.915846,0.246041 -1.452859,0.857901 -0.522478,0.607954 -0.748788,1.448073 -0.21567,0.821678 -0.158622,1.788292 0.05706,0.966617 0.314812,1.926074 0.277283,1.032145 0.680413,1.952549 0.399223,0.905866 0.976366,1.545726 0.573238,0.625321 1.30487,0.911948 0.742263,0.268182 1.701721,0.01046 0.857698,-0.230419 1.406426,-0.798667 0.563269,-0.572154 0.811925,-1.387104 0.259301,-0.83339 0.238036,-1.8408 -0.02516,-1.021944 -0.325877,-2.141311 z"
         style="font-style:normal;font-variant:normal;font-weight:normal;font-stretch:normal;font-size:22.5778px;line-height:1.25;font-family:Calibri;-inkscape-font-specification:'Calibri, Normal';font-variant-ligatures:normal;font-variant-caps:normal;font-variant-numeric:normal;font-variant-east-asian:normal;fill:#ff8080;fill-opacity:1;stroke:none;stroke-width:0.361264"
         id="path871" />
      <path
         d="m 106.37731,98.989984 q -0.37619,1.098746 -1.02176,1.965756 -0.64132,0.85453 -1.53851,1.35642 -0.89721,0.50187 -2.05391,0.58013 -1.13993,0.07 -2.538333,-0.40875 -0.486934,-0.16673 -0.910775,-0.39554 -0.428111,-0.21632 -0.784905,-0.47798 -0.34431,-0.25738 -0.621577,-0.5476 -0.272991,-0.30271 -0.483216,-0.62577 -0.09079,0.38739 -0.219371,0.8037 -0.120374,0.43306 -0.25717,0.83261 l -1.124292,3.28375 q -0.0342,0.0998 -0.109799,0.1577 -0.0756,0.0578 -0.205063,0.0693 -0.129473,0.012 -0.337795,-0.032 -0.208321,-0.0435 -0.520464,-0.1503 -0.299659,-0.10259 -0.49088,-0.19597 -0.191222,-0.0934 -0.298978,-0.18606 -0.09527,-0.0885 -0.119567,-0.18043 -0.01185,-0.0877 0.0224,-0.18762 l 5.578716,-16.293904 q 0.436037,-1.273544 1.123352,-2.14022 0.691597,-0.879164 1.559197,-1.335375 0.8719,-0.468696 1.89485,-0.522991 1.02295,-0.0543 2.10919,0.317615 1.1487,0.393291 1.86555,1.029308 0.7336,0.627806 1.06957,1.398457 0.34845,0.774925 0.34167,1.609568 0.006,0.838917 -0.27215,1.650489 -0.45314,1.323489 -1.39445,2.117151 -0.92453,0.785455 -2.2396,0.837378 0.82303,0.407337 1.3355,1.029176 0.52494,0.626113 0.75675,1.375049 0.24428,0.753208 0.20399,1.604273 -0.036,0.838578 -0.31817,1.662637 z m -2.25306,-0.590064 q 0.25222,-0.736659 0.2744,-1.412585 0.0389,-0.684135 -0.19422,-1.266141 -0.23316,-0.582007 -0.78443,-1.04974 -0.53879,-0.463461 -1.43777,-0.771253 l -1.07377,-0.36764 q -0.21226,-0.07268 -0.25623,-0.310918 -0.0315,-0.233969 0.12241,-0.683456 0.077,-0.224743 0.15749,-0.378507 0.093,-0.149491 0.17718,-0.232277 0.0842,-0.08278 0.17615,-0.107081 0.0921,-0.0243 0.1919,0.0099 l 0.24972,0.0855 q 0.82405,0.282138 1.48389,0.229069 0.67662,-0.06128 1.18404,-0.361824 0.51171,-0.313027 0.86638,-0.819315 0.35471,-0.506279 0.56418,-1.11808 0.18381,-0.536887 0.22567,-1.066581 0.0419,-0.529692 -0.12135,-0.990105 -0.1507,-0.456131 -0.54,-0.82656 -0.38931,-0.370428 -1.03857,-0.592724 -0.6867,-0.235115 -1.28411,-0.160671 -0.59742,0.07445 -1.09699,0.433482 -0.48279,0.350824 -0.88844,0.965207 -0.38888,0.60617 -0.6753,1.442716 l -3.25318,9.501645 q 0.490072,0.809462 1.157654,1.344916 0.67185,0.522963 1.420995,0.779463 0.849031,0.29069 1.542061,0.26293 0.70977,-0.036 1.24646,-0.34045 0.54095,-0.31697 0.93771,-0.864648 0.40103,-0.56016 0.66607,-1.334277 z"
         style="font-style:normal;font-variant:normal;font-weight:normal;font-stretch:normal;font-size:22.5778px;line-height:1.25;font-family:Calibri;-inkscape-font-specification:'Calibri, Normal';font-variant-ligatures:normal;font-variant-caps:normal;font-variant-numeric:normal;font-variant-east-asian:normal;fill:#ff8080;fill-opacity:1;stroke:none;stroke-width:0.316734"
         id="path873" />
      <path
         id="path875"
         d="m 100.35352,75.597656 -15.279301,25.976564 1.292969,0.76172 15.279292,-25.978518 z"
         style="color:#000000;font-style:normal;font-variant:normal;font-weight:normal;font-stretch:normal;font-size:medium;line-height:normal;font-family:sans-serif;font-variant-ligatures:normal;font-variant-position:normal;font-variant-caps:normal;font-variant-numeric:normal;font-variant-alternates:normal;font-variant-east-asian:normal;font-feature-settings:normal;font-variation-settings:normal;text-indent:0;text-align:start;text-decoration:none;text-decoration-line:none;text-decoration-style:solid;text-decoration-color:#000000;letter-spacing:normal;word-spacing:normal;text-transform:none;writing-mode:lr-tb;direction:ltr;text-orientation:mixed;dominant-baseline:auto;baseline-shift:baseline;text-anchor:start;white-space:normal;shape-padding:0;shape-margin:0;inline-size:0;clip-rule:nonzero;display:inline;overflow:visible;visibility:visible;opacity:1;isolation:auto;mix-blend-mode:normal;color-interpolation:sRGB;color-interpolation-filters:linearRGB;solid-color:#000000;solid-opacity:1;vector-effect:none;fill:#ff8080;fill-opacity:1;fill-rule:nonzero;stroke:none;stroke-width:1.5;stroke-linecap:butt;stroke-linejoin:miter;stroke-miterlimit:4;stroke-dasharray:none;stroke-dashoffset:0;stroke-opacity:1;color-rendering:auto;image-rendering:auto;shape-rendering:auto;text-rendering:auto;enable-background:accumulate;stop-color:#000000;stop-opacity:1" />
    </g>
  </g>
</svg>
