<?xml version="1.0" encoding="UTF-8" standalone="no"?>
<svg
   xmlns:dc="http://purl.org/dc/elements/1.1/"
   xmlns:cc="http://creativecommons.org/ns#"
   xmlns:rdf="http://www.w3.org/1999/02/22-rdf-syntax-ns#"
   xmlns:svg="http://www.w3.org/2000/svg"
   xmlns="http://www.w3.org/2000/svg"
   xmlns:xlink="http://www.w3.org/1999/xlink"
   xmlns:sodipodi="http://sodipodi.sourceforge.net/DTD/sodipodi-0.dtd"
   xmlns:inkscape="http://www.inkscape.org/namespaces/inkscape"
   sodipodi:docname="logo.svg"
   inkscape:version="1.0 (4035a4fb49, 2020-05-01)"
   id="svg8"
   version="1.1"
   viewBox="0 0 210 297"
   height="297mm"
   width="210mm">
  <defs
     id="defs2"><linearGradient
   id="linearGradient1274"
   inkscape:collect="always">
  <stop
     id="stop1270"
     offset="0"
     style="stop-color:#f6ffd5;stop-opacity:1" />
  <stop
     id="stop1272"
     offset="1"
     style="stop-color:#88aa00;stop-opacity:1" />
</linearGradient>
<linearGradient
   id="linearGradient1266"
   inkscape:collect="always">
  <stop
     id="stop1262"
     offset="0"
     style="stop-color:#e6e6e6;stop-opacity:1" />
  <stop
     id="stop1264"
     offset="1"
     style="stop-color:#666666;stop-opacity:1" />
</linearGradient>

	
















		
	
			
			
			
			
		<filter
   height="1.5205359"
   y="-0.26026793"
   width="1.1625851"
   x="-0.081292534"
   id="filter1062"
   style="color-interpolation-filters:sRGB"
   inkscape:collect="always">
  <feGaussianBlur
     id="feGaussianBlur1064"
     stdDeviation="4.6441388"
     inkscape:collect="always" />
</filter>
<radialGradient
   gradientTransform="matrix(1.17154,0,0,1.0701754,-18.636969,-6.3488234)"
   gradientUnits="userSpaceOnUse"
   r="68.554634"
   fy="87.473808"
   fx="112.06709"
   cy="87.473808"
   cx="112.06709"
   id="radialGradient1268"
   xlink:href="#linearGradient1266"
   inkscape:collect="always" />
<radialGradient
   gradientUnits="userSpaceOnUse"
   gradientTransform="matrix(1.5153408,0,0,1.6747512,-113.32569,-48.598291)"
   r="148.51104"
   fy="90.071198"
   fx="223.67349"
   cy="90.071198"
   cx="223.67349"
   id="radialGradient1276"
   xlink:href="#linearGradient1274"
   inkscape:collect="always" />
</defs>
  <sodipodi:namedview
     inkscape:window-maximized="1"
     inkscape:window-y="-9"
     inkscape:window-x="-9"
     inkscape:window-height="1001"
     inkscape:window-width="1920"
     inkscape:snap-global="false"
     showgrid="false"
     inkscape:document-rotation="0"
     inkscape:current-layer="layer1"
     inkscape:document-units="mm"
     inkscape:cy="417.82488"
     inkscape:cx="503.64475"
     inkscape:zoom="0.7"
     inkscape:pageshadow="2"
     inkscape:pageopacity="0.0"
     borderopacity="1.0"
     bordercolor="#666666"
     pagecolor="#ffffff"
     id="base" />
  <metadata
     id="metadata5">
    <rdf:RDF>
      <cc:Work
         rdf:about="">
        <dc:format>image/svg+xml</dc:format>
        <dc:type
           rdf:resource="http://purl.org/dc/dcmitype/StillImage" />
        <dc:title></dc:title>
      </cc:Work>
    </rdf:RDF>
  </metadata>
  <g
     id="layer1"
     inkscape:groupmode="layer"
     inkscape:label="Layer 1">
    <path
       d="m 100.29413,137.0476 a 68.554634,21.412435 0 0 0 -68.221669,21.41213 68.554634,21.412435 0 0 0 68.554469,21.41265 68.554634,21.412435 0 0 0 68.55447,-21.41265 68.554634,21.412435 0 0 0 -68.55447,-21.41213 68.554634,21.412435 0 0 0 -0.3328,0 z"
       style="fill:#808080;stroke-width:1.12334;stroke-linecap:square;filter:url(#filter1062)"
       id="circle921" />
    <circle
       r="68.554634"
       cy="107.04144"
       cx="100.62697"
       id="path840"
       style="fill:url(#radialGradient1268);stroke-width:2.01;stroke-linecap:square;fill-opacity:1" />
    <path
       inkscape:transform-center-y="-3.0238095"
       inkscape:transform-center-x="-36.844702"
       d="m 114.9253,49.604792 a 44.606344,57.571541 0 0 1 44.503,57.571748 44.606344,57.571541 0 0 1 -44.60602,57.57113 44.606344,57.571541 0 0 1 -7.64681,-0.85237 44.606344,57.571541 0 0 0 36.95967,-56.71876 44.606344,57.571541 0 0 0 -36.96017,-56.719398 44.606344,57.571541 0 0 1 7.64731,-0.85235 44.606344,57.571541 0 0 1 0.10301,0 z"
       style="opacity:0.50163934;fill:#ffffff;stroke-width:2.17776;stroke-linecap:square"
       id="path833" />
    <g
       style="fill:#005500"
       transform="matrix(0.38759069,0,0,0.38759069,43.065499,49.479769)"
       id="g915">
      <g
         style="fill:#005500"
         id="g854">
	<g
   style="fill:#005500"
   id="g852">
		<g
   style="fill:#005500"
   id="g850">
			<path
   style="fill:#005500"
   d="m 170.381,145.244 c -3.373,-5.842 -8.818,-10.02 -15.334,-11.766 -2.031,-0.545 -4.091,-0.832 -6.139,-0.868 -4.525,-0.079 -9.003,1.069 -13.023,3.391 -5.842,3.373 -10.021,8.818 -11.767,15.334 -1.746,6.516 -0.85,13.321 2.523,19.164 3.373,5.841 8.818,10.02 15.334,11.766 6.519,1.747 13.322,0.85 19.164,-2.523 12.058,-6.964 16.204,-22.439 9.242,-34.498 z"
   id="path842" />

			<path
   style="fill:#005500"
   d="m 121.196,126.724 c 2.022,-1.766 4.23,-3.348 6.607,-4.721 9.579,-5.532 20.74,-7 31.427,-4.138 6.242,1.673 11.878,4.715 16.595,8.859 l 49.899,-86.428 c 1.072,-1.858 1.362,-4.065 0.807,-6.137 -0.557,-2.071 -1.913,-3.836 -3.771,-4.907 C 176.924,2.845 120.024,2.854 74.264,29.273 c -1.857,1.072 -3.211,2.837 -3.766,4.907 -0.554,2.07 -0.264,4.276 0.808,6.132 z"
   id="path844" />

			<path
   style="fill:#005500"
   d="m 294.658,152.16 c -1.515,-1.518 -3.548,-2.409 -5.717,-2.37 l -99.82,0.001 c 3.351,16.918 -4.157,34.857 -19.903,43.949 -2.377,1.373 -4.854,2.485 -7.395,3.354 l 49.894,86.418 c 1.072,1.857 2.837,3.211 4.907,3.766 0.642,0.172 1.297,0.262 1.951,0.274 1.454,0.025 2.901,-0.342 4.181,-1.081 45.759,-26.419 74.216,-75.692 74.266,-128.59 0.003,-2.147 -0.847,-4.205 -2.364,-5.721 z"
   id="path846" />

			<path
   style="fill:#005500"
   d="m 112.643,178.579 c -5.078,-8.795 -6.721,-18.921 -4.743,-28.789 H 8.081 c -4.461,0 -8.076,3.613 -8.081,8.074 -0.025,25.97 6.861,51.646 19.913,74.254 13.052,22.608 31.846,41.409 54.348,54.373 1.228,0.707 2.563,1.055 3.886,1.078 2.842,0.05 5.625,-1.404 7.147,-4.04 l 49.91,-86.445 c -9.536,-3.223 -17.483,-9.71 -22.561,-18.505 z"
   id="path848" />

		</g>

	</g>

</g>
      <g
         style="fill:#005500"
         id="g856">
</g>
      <g
         style="fill:#005500"
         id="g858">
</g>
      <g
         style="fill:#005500"
         id="g860">
</g>
      <g
         style="fill:#005500"
         id="g862">
</g>
      <g
         style="fill:#005500"
         id="g864">
</g>
      <g
         style="fill:#005500"
         id="g866">
</g>
      <g
         style="fill:#005500"
         id="g868">
</g>
      <g
         style="fill:#005500"
         id="g870">
</g>
      <g
         style="fill:#005500"
         id="g872">
</g>
      <g
         style="fill:#005500"
         id="g874">
</g>
      <g
         style="fill:#005500"
         id="g876">
</g>
      <g
         style="fill:#005500"
         id="g878">
</g>
      <g
         style="fill:#005500"
         id="g880">
</g>
      <g
         style="fill:#005500"
         id="g882">
</g>
      <g
         style="fill:#005500"
         id="g884">
</g>
    </g>
    <g
       style="fill:url(#radialGradient1276);fill-opacity:1"
       id="g1166"
       transform="matrix(0.33089198,0,0,0.33089198,51.485879,58.429346)">
      <g
         style="fill:url(#radialGradient1276);fill-opacity:1"
         id="g1134">
	<g
   style="fill:url(#radialGradient1276);fill-opacity:1"
   id="g1132">
		<g
   style="fill:url(#radialGradient1276);fill-opacity:1"
   id="g1130">
			<path
   style="fill:url(#radialGradient1276);fill-opacity:1"
   id="path1122"
   d="m 170.381,145.244 c -3.373,-5.842 -8.818,-10.02 -15.334,-11.766 -2.031,-0.545 -4.091,-0.832 -6.139,-0.868 -4.525,-0.079 -9.003,1.069 -13.023,3.391 -5.842,3.373 -10.021,8.818 -11.767,15.334 -1.746,6.516 -0.85,13.321 2.523,19.164 3.373,5.841 8.818,10.02 15.334,11.766 6.519,1.747 13.322,0.85 19.164,-2.523 12.058,-6.964 16.204,-22.439 9.242,-34.498 z" />

			<path
   style="fill:url(#radialGradient1276);fill-opacity:1"
   id="path1124"
   d="m 121.196,126.724 c 2.022,-1.766 4.23,-3.348 6.607,-4.721 9.579,-5.532 20.74,-7 31.427,-4.138 6.242,1.673 11.878,4.715 16.595,8.859 l 49.899,-86.428 c 1.072,-1.858 1.362,-4.065 0.807,-6.137 -0.557,-2.071 -1.913,-3.836 -3.771,-4.907 C 176.924,2.845 120.024,2.854 74.264,29.273 c -1.857,1.072 -3.211,2.837 -3.766,4.907 -0.554,2.07 -0.264,4.276 0.808,6.132 z" />

			<path
   style="fill:url(#radialGradient1276);fill-opacity:1"
   id="path1126"
   d="m 294.658,152.16 c -1.515,-1.518 -3.548,-2.409 -5.717,-2.37 l -99.82,0.001 c 3.351,16.918 -4.157,34.857 -19.903,43.949 -2.377,1.373 -4.854,2.485 -7.395,3.354 l 49.894,86.418 c 1.072,1.857 2.837,3.211 4.907,3.766 0.642,0.172 1.297,0.262 1.951,0.274 1.454,0.025 2.901,-0.342 4.181,-1.081 45.759,-26.419 74.216,-75.692 74.266,-128.59 0.003,-2.147 -0.847,-4.205 -2.364,-5.721 z" />

			<path
   style="fill:url(#radialGradient1276);fill-opacity:1"
   id="path1128"
   d="m 112.643,178.579 c -5.078,-8.795 -6.721,-18.921 -4.743,-28.789 H 8.081 c -4.461,0 -8.076,3.613 -8.081,8.074 -0.025,25.97 6.861,51.646 19.913,74.254 13.052,22.608 31.846,41.409 54.348,54.373 1.228,0.707 2.563,1.055 3.886,1.078 2.842,0.05 5.625,-1.404 7.147,-4.04 l 49.91,-86.445 c -9.536,-3.223 -17.483,-9.71 -22.561,-18.505 z" />

		</g>

	</g>

</g>
      <g
         style="fill:url(#radialGradient1276);fill-opacity:1"
         id="g1136">
</g>
      <g
         style="fill:url(#radialGradient1276);fill-opacity:1"
         id="g1138">
</g>
      <g
         style="fill:url(#radialGradient1276);fill-opacity:1"
         id="g1140">
</g>
      <g
         style="fill:url(#radialGradient1276);fill-opacity:1"
         id="g1142">
</g>
      <g
         style="fill:url(#radialGradient1276);fill-opacity:1"
         id="g1144">
</g>
      <g
         style="fill:url(#radialGradient1276);fill-opacity:1"
         id="g1146">
</g>
      <g
         style="fill:url(#radialGradient1276);fill-opacity:1"
         id="g1148">
</g>
      <g
         style="fill:url(#radialGradient1276);fill-opacity:1"
         id="g1150">
</g>
      <g
         style="fill:url(#radialGradient1276);fill-opacity:1"
         id="g1152">
</g>
      <g
         style="fill:url(#radialGradient1276);fill-opacity:1"
         id="g1154">
</g>
      <g
         style="fill:url(#radialGradient1276);fill-opacity:1"
         id="g1156">
</g>
      <g
         style="fill:url(#radialGradient1276);fill-opacity:1"
         id="g1158">
</g>
      <g
         style="fill:url(#radialGradient1276);fill-opacity:1"
         id="g1160">
</g>
      <g
         style="fill:url(#radialGradient1276);fill-opacity:1"
         id="g1162">
</g>
      <g
         style="fill:url(#radialGradient1276);fill-opacity:1"
         id="g1164">
</g>
    </g>
  </g>
</svg>
