<?xml version="1.0" encoding="UTF-8" standalone="no"?>
<svg
   xmlns:dc="http://purl.org/dc/elements/1.1/"
   xmlns:cc="http://creativecommons.org/ns#"
   xmlns:rdf="http://www.w3.org/1999/02/22-rdf-syntax-ns#"
   xmlns:svg="http://www.w3.org/2000/svg"
   xmlns="http://www.w3.org/2000/svg"
   xmlns:sodipodi="http://sodipodi.sourceforge.net/DTD/sodipodi-0.dtd"
   xmlns:inkscape="http://www.inkscape.org/namespaces/inkscape"
   sodipodi:docname="total_fluence.svg"
   inkscape:version="1.0 (4035a4fb49, 2020-05-01)"
   id="svg8"
   version="1.1"
   viewBox="0 0 210 297"
   height="297mm"
   width="210mm">
  <defs
     id="defs2"><marker
   inkscape:isstock="true"
   style="overflow:visible"
   id="StopM"
   refX="0.0"
   refY="0.0"
   orient="auto"
   inkscape:stockid="StopM">
  <path
     transform="scale(0.4)"
     style="fill:none;fill-opacity:0.75;fill-rule:evenodd;stroke:#000000;stroke-width:1pt;stroke-opacity:1"
     d="M 0.0,5.65 L 0.0,-5.65"
     id="path1121" />
</marker>
<marker
   inkscape:isstock="true"
   style="overflow:visible"
   id="DiamondLend"
   refX="0.0"
   refY="0.0"
   orient="auto"
   inkscape:stockid="DiamondLend">
  <path
     transform="scale(0.8) translate(-7,0)"
     style="fill-rule:evenodd;stroke:#000000;stroke-width:1pt;stroke-opacity:1;fill:#000000;fill-opacity:1"
     d="M 0,-7.0710768 L -7.0710894,0 L 0,7.0710589 L 7.0710462,0 L 0,-7.0710768 z "
     id="path1046" />
</marker>
<marker
   inkscape:isstock="true"
   style="overflow:visible"
   id="EmptyDiamondSstart"
   refX="0.0"
   refY="0.0"
   orient="auto"
   inkscape:stockid="EmptyDiamondSstart">
  <path
     transform="scale(0.2) translate(6,0)"
     style="fill-rule:evenodd;fill:#ffffff;stroke:#000000;stroke-width:1pt;stroke-opacity:1"
     d="M 0,-7.0710768 L -7.0710894,0 L 0,7.0710589 L 7.0710462,0 L 0,-7.0710768 z "
     id="path1070" />
</marker>
<marker
   inkscape:isstock="true"
   inkscape:stockid="DistanceStart"
   orient="auto"
   refY="0.0"
   refX="0.0"
   id="DistanceStart"
   style="overflow:visible">
  <g
     style="stroke:#000000;stroke-opacity:1;fill:#000000;fill-opacity:1"
     id="g2300">
    <path
       id="path2306"
       d="M 0,0 L 2,0"
       style="fill:#000000;stroke:#000000;stroke-width:1.15;stroke-linecap:square;stroke-opacity:1;fill-opacity:1" />
    <path
       id="path2302"
       d="M 0,0 L 13,4 L 9,0 13,-4 L 0,0 z "
       style="fill:#000000;fill-rule:evenodd;stroke:#000000;stroke-opacity:1;fill-opacity:1" />
    <path
       id="path2304"
       d="M 0,-4 L 0,40"
       style="fill:#000000;stroke:#000000;stroke-width:1;stroke-linecap:square;stroke-opacity:1;fill-opacity:1" />
  </g>
</marker>
<marker
   inkscape:isstock="true"
   style="overflow:visible"
   id="Arrow1Lstart"
   refX="0.0"
   refY="0.0"
   orient="auto"
   inkscape:stockid="Arrow1Lstart">
  <path
     transform="scale(0.8) translate(12.5,0)"
     style="fill-rule:evenodd;stroke:#000000;stroke-width:1pt;stroke-opacity:1;fill:#000000;fill-opacity:1"
     d="M 0.0,0.0 L 5.0,-5.0 L -12.5,0.0 L 5.0,5.0 L 0.0,0.0 z "
     id="path949" />
</marker>

	
















		
		
	
			
		
			
		</defs>
  <sodipodi:namedview
     inkscape:window-maximized="1"
     inkscape:window-y="-9"
     inkscape:window-x="-9"
     inkscape:window-height="1001"
     inkscape:window-width="1920"
     inkscape:snap-global="false"
     showgrid="false"
     inkscape:document-rotation="0"
     inkscape:current-layer="layer1"
     inkscape:document-units="mm"
     inkscape:cy="348.37568"
     inkscape:cx="314.10452"
     inkscape:zoom="1.4"
     inkscape:pageshadow="2"
     inkscape:pageopacity="0.0"
     borderopacity="1.0"
     bordercolor="#666666"
     pagecolor="#ffffff"
     id="base" />
  <metadata
     id="metadata5">
    <rdf:RDF>
      <cc:Work
         rdf:about="">
        <dc:format>image/svg+xml</dc:format>
        <dc:type
           rdf:resource="http://purl.org/dc/dcmitype/StillImage" />
        <dc:title></dc:title>
      </cc:Work>
    </rdf:RDF>
  </metadata>
  <g
     id="layer1"
     inkscape:groupmode="layer"
     inkscape:label="Layer 1">
    <rect
       y="67.65773"
       x="29.293156"
       height="60.746094"
       width="88.149567"
       id="rect1507"
       style="opacity:1;fill:#000000;stroke:none;stroke-width:1.10818;stroke-linecap:square;stroke-miterlimit:4;stroke-dasharray:none;stroke-dashoffset:0" />
    <g
       transform="matrix(0.90488819,0,-0.2473814,0.2344846,22.950751,90.229488)"
       id="g1543"
       style="opacity:0.260586;fill:#ff7f2a">
      <g
         aria-label="∫"
         id="g1537"
         style="font-style:normal;font-weight:normal;font-size:93.4856px;line-height:1.25;font-family:sans-serif;fill:#ff7f2a;fill-opacity:1;stroke:none;stroke-width:2.33715">
        <path
           d="m 80.995951,80.914384 h -2.27101 q -0.176389,-0.97014 -0.705556,-1.587502 -0.529167,-0.63941 -1.411112,-0.63941 -2.359204,0 -3.108858,3.836462 -0.727605,3.814414 -0.727605,17.528666 0,11.37709 -2.09462,18.05783 -2.072571,6.68073 -7.342195,6.68073 -1.058334,0 -1.852085,-0.17638 -0.793751,-0.17639 -1.543404,-0.57327 l 0.286632,-4.34358 h 2.072571 q 0.286633,1.05833 0.837849,1.74184 0.573264,0.68351 1.60955,0.68351 2.315106,0 2.910419,-4.8066 0.595314,-4.78456 0.595314,-13.97884 0,-14.331608 2.160766,-20.880052 2.182814,-6.548444 7.540632,-6.548444 0.771702,0 1.697745,0.220486 0.948091,0.198438 1.60955,0.507119 z"
           style="font-style:normal;font-variant:normal;font-weight:normal;font-stretch:normal;font-size:45.1556px;font-family:'Cambria Math';-inkscape-font-specification:'Cambria Math, Normal';font-variant-ligatures:normal;font-variant-caps:normal;font-variant-numeric:normal;font-variant-east-asian:normal;fill:#ff7f2a;stroke-width:2.33715"
           id="path1535" />
      </g>
      <g
         style="font-style:normal;font-weight:normal;font-size:41.5513px;line-height:1.25;font-family:sans-serif;fill:#ff7f2a;fill-opacity:1;stroke:none;stroke-width:1.03878"
         id="text1541"
         aria-label="ϕ">
        <path
           id="path2457"
           style="font-style:normal;font-variant:normal;font-weight:normal;font-stretch:normal;font-size:41.5513px;font-family:'Cambria Math';-inkscape-font-specification:'Cambria Math, Normal';font-variant-ligatures:normal;font-variant-caps:normal;font-variant-numeric:normal;font-variant-east-asian:normal;fill:#ff7f2a;stroke-width:1.03878"
           d="m 91.936235,110.50475 q -5.315644,-0.10145 -8.115488,-2.59696 -2.779555,-2.5158 -2.779555,-7.04018 0,-4.504101 2.799844,-7.243078 2.799843,-2.738978 8.095199,-3.144752 v -8.703861 h 3.408506 v 8.703861 q 5.356219,0.16231 8.115489,2.657822 2.77955,2.495513 2.77955,7.080768 0,3.00273 -1.27819,5.27506 -1.27819,2.25205 -3.75341,3.57082 -2.475223,1.29848 -5.863439,1.4405 v 8.41982 h -3.408506 z m 0,-1.60281 V 92.082589 q -3.428793,0.385486 -5.214201,2.576667 -1.765119,2.191182 -1.765119,6.046044 0,3.55052 1.805697,5.72141 1.805696,2.15061 5.173623,2.47523 z m 3.408506,0 q 3.347638,-0.38549 5.153339,-2.55638 1.82598,-2.17089 1.82598,-5.762 0,-3.854854 -1.76512,-5.98517 -1.765117,-2.130315 -5.214199,-2.515801 z" />
      </g>
    </g>
    <g
       transform="matrix(0.90488819,0,0,0.90488819,4.8892395,6.3271996)"
       id="g2473">
      <g
         id="g1513"
         transform="translate(-12.284226)"
         style="opacity:1">
        <g
           style="font-style:normal;font-weight:normal;font-size:93.4856px;line-height:1.25;font-family:sans-serif;fill:#ffffff;fill-opacity:1;stroke:none;stroke-width:2.33715"
           id="text1498"
           aria-label="∫">
          <path
             id="path1500"
             style="font-style:normal;font-variant:normal;font-weight:normal;font-stretch:normal;font-size:45.1556px;font-family:'Cambria Math';-inkscape-font-specification:'Cambria Math, Normal';font-variant-ligatures:normal;font-variant-caps:normal;font-variant-numeric:normal;font-variant-east-asian:normal;fill:#ffffff;stroke-width:2.33715"
             d="m 80.995951,80.914384 h -2.27101 q -0.176389,-0.97014 -0.705556,-1.587502 -0.529167,-0.63941 -1.411112,-0.63941 -2.359204,0 -3.108858,3.836462 -0.727605,3.814414 -0.727605,17.528666 0,11.37709 -2.09462,18.05783 -2.072571,6.68073 -7.342195,6.68073 -1.058334,0 -1.852085,-0.17638 -0.793751,-0.17639 -1.543404,-0.57327 l 0.286632,-4.34358 h 2.072571 q 0.286633,1.05833 0.837849,1.74184 0.573264,0.68351 1.60955,0.68351 2.315106,0 2.910419,-4.8066 0.595314,-4.78456 0.595314,-13.97884 0,-14.331608 2.160766,-20.880052 2.182814,-6.548444 7.540632,-6.548444 0.771702,0 1.697745,0.220486 0.948091,0.198438 1.60955,0.507119 z" />
        </g>
        <text
           id="text1505"
           y="110.20042"
           x="78.951454"
           style="font-style:normal;font-weight:normal;font-size:41.5513px;line-height:1.25;font-family:sans-serif;fill:#ffffff;fill-opacity:1;stroke:none;stroke-width:1.03878"
           xml:space="preserve"><tspan
             style="font-style:normal;font-variant:normal;font-weight:normal;font-stretch:normal;font-size:41.5513px;font-family:'Cambria Math';-inkscape-font-specification:'Cambria Math, Normal';font-variant-ligatures:normal;font-variant-caps:normal;font-variant-numeric:normal;font-variant-east-asian:normal;fill:#ffffff;stroke-width:1.03878"
             y="110.20042"
             x="78.951454"
             id="tspan1503"
             sodipodi:role="line">ϕ</tspan></text>
      </g>
      <g
         transform="translate(-11.483198)"
         id="g1523"
         style="fill:#ff7f2a">
        <g
           aria-label="∫"
           id="g1517"
           style="font-style:normal;font-weight:normal;font-size:93.4856px;line-height:1.25;font-family:sans-serif;fill:#ff7f2a;fill-opacity:1;stroke:none;stroke-width:2.33715">
          <path
             d="m 80.995951,80.914384 h -2.27101 q -0.176389,-0.97014 -0.705556,-1.587502 -0.529167,-0.63941 -1.411112,-0.63941 -2.359204,0 -3.108858,3.836462 -0.727605,3.814414 -0.727605,17.528666 0,11.37709 -2.09462,18.05783 -2.072571,6.68073 -7.342195,6.68073 -1.058334,0 -1.852085,-0.17638 -0.793751,-0.17639 -1.543404,-0.57327 l 0.286632,-4.34358 h 2.072571 q 0.286633,1.05833 0.837849,1.74184 0.573264,0.68351 1.60955,0.68351 2.315106,0 2.910419,-4.8066 0.595314,-4.78456 0.595314,-13.97884 0,-14.331608 2.160766,-20.880052 2.182814,-6.548444 7.540632,-6.548444 0.771702,0 1.697745,0.220486 0.948091,0.198438 1.60955,0.507119 z"
             style="font-style:normal;font-variant:normal;font-weight:normal;font-stretch:normal;font-size:45.1556px;font-family:'Cambria Math';-inkscape-font-specification:'Cambria Math, Normal';font-variant-ligatures:normal;font-variant-caps:normal;font-variant-numeric:normal;font-variant-east-asian:normal;fill:#ff7f2a;stroke-width:2.33715"
             id="path1515" />
        </g>
        <text
           xml:space="preserve"
           style="font-style:normal;font-weight:normal;font-size:41.5513px;line-height:1.25;font-family:sans-serif;fill:#ff7f2a;fill-opacity:1;stroke:none;stroke-width:1.03878"
           x="78.951454"
           y="110.20042"
           id="text1521"><tspan
             sodipodi:role="line"
             id="tspan1519"
             x="78.951454"
             y="110.20042"
             style="font-style:normal;font-variant:normal;font-weight:normal;font-stretch:normal;font-size:41.5513px;font-family:'Cambria Math';-inkscape-font-specification:'Cambria Math, Normal';font-variant-ligatures:normal;font-variant-caps:normal;font-variant-numeric:normal;font-variant-east-asian:normal;fill:#ff7f2a;stroke-width:1.03878">ϕ</tspan></text>
      </g>
    </g>
  </g>
</svg>
