<?xml version="1.0" encoding="UTF-8" standalone="no"?>
<svg
   xmlns:dc="http://purl.org/dc/elements/1.1/"
   xmlns:cc="http://creativecommons.org/ns#"
   xmlns:rdf="http://www.w3.org/1999/02/22-rdf-syntax-ns#"
   xmlns:svg="http://www.w3.org/2000/svg"
   xmlns="http://www.w3.org/2000/svg"
   xmlns:sodipodi="http://sodipodi.sourceforge.net/DTD/sodipodi-0.dtd"
   xmlns:inkscape="http://www.inkscape.org/namespaces/inkscape"
   sodipodi:docname="volume.svg"
   inkscape:version="1.0 (4035a4fb49, 2020-05-01)"
   id="svg8"
   version="1.1"
   viewBox="0 0 210 297"
   height="297mm"
   width="210mm">
  <defs
     id="defs2" />
  <sodipodi:namedview
     inkscape:window-maximized="1"
     inkscape:window-y="-9"
     inkscape:window-x="-9"
     inkscape:window-height="1001"
     inkscape:window-width="1920"
     showgrid="false"
     inkscape:document-rotation="0"
     inkscape:current-layer="layer1"
     inkscape:document-units="mm"
     inkscape:cy="487.92987"
     inkscape:cx="302.32502"
     inkscape:zoom="0.98994949"
     inkscape:pageshadow="2"
     inkscape:pageopacity="0.0"
     borderopacity="1.0"
     bordercolor="#666666"
     pagecolor="#ffffff"
     id="base" />
  <metadata
     id="metadata5">
    <rdf:RDF>
      <cc:Work
         rdf:about="">
        <dc:format>image/svg+xml</dc:format>
        <dc:type
           rdf:resource="http://purl.org/dc/dcmitype/StillImage" />
        <dc:title></dc:title>
      </cc:Work>
    </rdf:RDF>
  </metadata>
  <g
     id="layer1"
     inkscape:groupmode="layer"
     inkscape:label="Layer 1">
    <rect
       y="70.028168"
       x="22.442501"
       height="67.327606"
       width="101.76402"
       id="rect85"
       style="fill:#000000;stroke:#000000;stroke-width:0.438017;stroke-linecap:square" />
    <g
       style="fill:#44aa00;stroke:#00ccff;stroke-width:4.04627;stroke-miterlimit:4;stroke-dasharray:none"
       transform="matrix(0.09586089,0,0,0.09586089,47.95478,78.330285)"
       id="g83">
      <g
         style="fill:#44aa00;stroke:#00ccff;stroke-width:4.04627;stroke-miterlimit:4;stroke-dasharray:none"
         id="g22">
	<g
   style="fill:#44aa00;stroke:#00ccff;stroke-width:4.04627;stroke-miterlimit:4;stroke-dasharray:none"
   id="g20">
		<g
   style="fill:#44aa00;stroke:#00ccff;stroke-width:4.04627;stroke-miterlimit:4;stroke-dasharray:none"
   id="g18">
			<path
   style="fill:#44aa00;stroke:#00ccff;stroke-width:4.04627;stroke-miterlimit:4;stroke-dasharray:none"
   d="m 315.797,360.171 c -0.448,5.568 -5.12,9.771 -10.603,9.771 -0.32,0 -0.597,0 -0.917,-0.043 -5.845,-0.491 -10.219,-5.632 -9.728,-11.52 0.491,-5.781 0.917,-11.712 1.323,-17.707 -14.805,0.469 -28.437,0.661 -39.872,0.661 -16.64,0 -37.76,-0.363 -60.8,-1.515 C 202.389,432.725 222.016,512 256,512 c 0.192,0 1.024,-0.277 2.368,-1.493 4.288,-3.861 10.816,-3.541 14.805,0.619 119.36,-7.979 216.341,-97.941 235.2,-214.037 -40.725,28.971 -123.968,39.339 -191.04,42.709 -0.448,6.911 -0.981,13.717 -1.536,20.373 z m -15.466,103.978 c -1.813,7.467 -3.733,14.379 -5.717,20.672 -1.429,4.544 -5.632,7.467 -10.176,7.467 -1.067,0 -2.155,-0.149 -3.2,-0.491 -5.632,-1.771 -8.725,-7.765 -6.955,-13.376 1.856,-5.867 3.605,-12.309 5.291,-19.264 1.387,-5.739 7.168,-9.259 12.885,-7.851 5.738,1.366 9.258,7.126 7.872,12.843 z m 11.114,-62.293 c -0.96,7.168 -1.963,14.123 -3.008,20.8 -0.832,5.248 -5.376,9.003 -10.517,9.003 -0.555,0 -1.131,-0.043 -1.685,-0.128 -5.803,-0.917 -9.792,-6.379 -8.875,-12.203 1.045,-6.507 2.005,-13.248 2.901,-20.224 0.768,-5.845 5.909,-9.92 11.968,-9.216 5.824,0.768 9.963,6.123 9.216,11.968 z"
   id="path10" />

			<path
   style="fill:#44aa00;stroke:#00ccff;stroke-width:4.04627;stroke-miterlimit:4;stroke-dasharray:none"
   d="M 193.771,318.229 C 214.336,319.381 235.285,320 256,320 379.285,320 512,299.968 512,256 512,120.64 406.336,9.771 273.173,0.875 c -2.091,2.176 -4.864,3.349 -7.68,3.349 -2.539,0 -5.077,-0.896 -7.125,-2.731 C 257.024,0.277 256.192,0 256,0 c -43.989,0 -64,132.693 -64,256 0,20.715 0.619,41.664 1.771,62.229 z m 265.536,-98.645 c 1.344,-5.739 7.019,-9.387 12.821,-7.979 7.765,1.792 14.955,3.712 21.483,5.696 5.632,1.707 8.811,7.659 7.104,13.312 -1.387,4.587 -5.632,7.552 -10.219,7.552 -1.024,0 -2.069,-0.149 -3.115,-0.448 -6.101,-1.856 -12.843,-3.627 -20.096,-5.333 -5.717,-1.323 -9.301,-7.061 -7.978,-12.8 z M 319.36,297.536 c -0.192,5.781 -4.907,10.347 -10.667,10.347 h -0.341 c -5.867,-0.192 -10.496,-5.099 -10.325,-10.987 0.213,-6.763 0.384,-13.632 0.469,-20.544 0.085,-5.845 4.864,-10.517 10.667,-10.517 h 0.171 c 5.867,0.085 10.581,4.928 10.496,10.816 -0.107,7.061 -0.278,14.016 -0.47,20.885 z m 76.181,-87.723 c 0.704,-5.824 6.08,-10.069 11.883,-9.259 7.467,0.917 14.656,1.92 21.632,2.987 5.803,0.875 9.835,6.315 8.939,12.139 -0.789,5.291 -5.355,9.067 -10.517,9.067 -0.533,0 -1.088,-0.043 -1.621,-0.128 -6.763,-1.024 -13.781,-1.984 -21.035,-2.901 -5.846,-0.726 -10.006,-6.059 -9.281,-11.905 z M 331.2,204.629 c 0.363,-5.888 4.885,-10.347 11.307,-10.005 7.36,0.448 14.592,0.981 21.653,1.536 5.867,0.469 10.24,5.611 9.771,11.499 -0.448,5.589 -5.099,9.813 -10.603,9.813 -0.299,0 -0.576,0 -0.875,-0.021 -6.933,-0.555 -14.037,-1.067 -21.269,-1.515 -5.867,-0.384 -10.347,-5.44 -9.984,-11.307 z m -15.424,-53.184 c 0.555,6.805 1.109,13.781 1.557,20.864 0.384,5.888 -4.053,10.965 -9.963,11.349 -0.235,0 -0.448,0.021 -0.704,0.021 -5.568,0 -10.24,-4.331 -10.624,-9.963 -0.448,-6.955 -0.96,-13.781 -1.515,-20.48 -0.491,-5.867 3.883,-11.029 9.728,-11.52 5.782,-0.745 11.009,3.82 11.521,9.729 z m -7.403,-62.506 c 1.045,6.677 2.048,13.632 2.987,20.8 0.747,5.845 -3.371,11.2 -9.216,11.968 -0.469,0.043 -0.939,0.085 -1.387,0.085 -5.269,0 -9.856,-3.925 -10.56,-9.301 -0.896,-6.976 -1.856,-13.717 -2.901,-20.224 -0.917,-5.824 3.072,-11.285 8.875,-12.203 5.717,-0.981 11.285,3.051 12.202,8.875 z M 281.088,19.84 c 5.696,-1.792 11.627,1.323 13.419,6.933 2.005,6.293 3.947,13.227 5.739,20.715 1.365,5.739 -2.176,11.499 -7.893,12.864 -0.832,0.192 -1.664,0.299 -2.475,0.299 -4.843,0 -9.216,-3.285 -10.368,-8.171 -1.664,-6.955 -3.435,-13.355 -5.312,-19.2 -1.814,-5.653 1.279,-11.648 6.89,-13.44 z m -3.584,172.331 c 7.317,0.107 14.549,0.256 21.696,0.469 5.867,0.192 10.496,5.099 10.325,11.008 0,0.085 -0.043,0.128 -0.043,0.213 5.376,0.405 9.728,4.672 9.899,10.197 0.171,6.848 0.341,13.803 0.469,20.843 0.107,5.888 -4.587,10.752 -10.475,10.859 h -0.192 c -5.803,0 -10.56,-4.651 -10.667,-10.475 -0.128,-6.933 -0.299,-13.803 -0.491,-20.587 0,-0.256 0.107,-0.469 0.128,-0.725 -6.912,-0.213 -13.888,-0.363 -20.949,-0.469 -5.888,-0.085 -10.603,-4.928 -10.517,-10.816 0.086,-5.867 5.121,-10.325 10.817,-10.517 z m -65.067,0.448 c 7.125,-0.213 14.357,-0.384 21.675,-0.469 5.717,0.427 10.731,4.629 10.816,10.517 0.085,5.888 -4.608,10.731 -10.517,10.816 -7.189,0.107 -14.293,0.277 -21.333,0.469 h -0.32 c -5.76,0 -10.496,-4.565 -10.667,-10.347 -0.171,-5.888 4.458,-10.794 10.346,-10.986 z"
   id="path12" />

			<path
   style="fill:#44aa00;stroke:#00ccff;stroke-width:4.04627;stroke-miterlimit:4;stroke-dasharray:none"
   d="M 3.605,297.088 C 21.184,405.312 106.666,490.795 214.89,508.373 188.927,471.85 177.877,401.173 173.482,338.517 110.827,334.123 40.149,323.072 3.605,297.088 Z"
   id="path14" />

			<path
   style="fill:#44aa00;stroke:#00ccff;stroke-width:4.04627;stroke-miterlimit:4;stroke-dasharray:none"
   d="m 172.181,316.8 c -1.152,-23.04 -1.515,-44.16 -1.515,-60.8 0,-11.541 0.192,-25.323 0.661,-40.299 -0.299,0.043 -0.555,0.213 -0.853,0.235 -7.211,0.448 -14.293,0.96 -21.248,1.536 -0.32,0.021 -0.597,0.021 -0.896,0.021 -5.483,0 -10.155,-4.224 -10.603,-9.792 -0.469,-5.867 3.904,-11.029 9.749,-11.499 7.083,-0.576 14.336,-1.088 21.675,-1.557 1.088,-0.043 2.048,0.213 3.051,0.427 C 175.53,127.936 185.898,44.437 214.933,3.627 93.248,23.381 0,128.853 0,256 c 0,33.963 79.275,53.589 172.181,60.8 z M 82.624,203.584 c 6.933,-1.067 14.144,-2.048 21.632,-2.987 5.76,-0.853 11.157,3.413 11.904,9.28 0.725,5.845 -3.413,11.157 -9.28,11.904 -7.275,0.896 -14.272,1.877 -21.035,2.901 -0.533,0.085 -1.088,0.128 -1.621,0.128 -5.163,0 -9.728,-3.776 -10.517,-9.067 -0.918,-5.844 3.114,-11.284 8.917,-12.159 z m -64.576,13.824 c 6.507,-1.984 13.696,-3.904 21.44,-5.717 5.781,-1.344 11.477,2.219 12.821,7.957 1.344,5.738 -2.219,11.477 -7.936,12.821 -7.253,1.707 -13.973,3.477 -20.096,5.333 -1.024,0.32 -2.091,0.469 -3.115,0.469 -4.565,0 -8.789,-2.965 -10.219,-7.552 -1.706,-5.631 1.452,-11.583 7.105,-13.311 z"
   id="path16" />

		</g>

	</g>

</g>
      <g
         style="fill:#44aa00;stroke:#00ccff;stroke-width:4.04627;stroke-miterlimit:4;stroke-dasharray:none"
         id="g24">
</g>
      <g
         style="fill:#44aa00;stroke:#00ccff;stroke-width:4.04627;stroke-miterlimit:4;stroke-dasharray:none"
         id="g26">
</g>
      <g
         style="fill:#44aa00;stroke:#00ccff;stroke-width:4.04627;stroke-miterlimit:4;stroke-dasharray:none"
         id="g28">
</g>
      <g
         style="fill:#44aa00;stroke:#00ccff;stroke-width:4.04627;stroke-miterlimit:4;stroke-dasharray:none"
         id="g30">
</g>
      <g
         style="fill:#44aa00;stroke:#00ccff;stroke-width:4.04627;stroke-miterlimit:4;stroke-dasharray:none"
         id="g32">
</g>
      <g
         style="fill:#44aa00;stroke:#00ccff;stroke-width:4.04627;stroke-miterlimit:4;stroke-dasharray:none"
         id="g34">
</g>
      <g
         style="fill:#44aa00;stroke:#00ccff;stroke-width:4.04627;stroke-miterlimit:4;stroke-dasharray:none"
         id="g36">
</g>
      <g
         style="fill:#44aa00;stroke:#00ccff;stroke-width:4.04627;stroke-miterlimit:4;stroke-dasharray:none"
         id="g38">
</g>
      <g
         style="fill:#44aa00;stroke:#00ccff;stroke-width:4.04627;stroke-miterlimit:4;stroke-dasharray:none"
         id="g40">
</g>
      <g
         style="fill:#44aa00;stroke:#00ccff;stroke-width:4.04627;stroke-miterlimit:4;stroke-dasharray:none"
         id="g42">
</g>
      <g
         style="fill:#44aa00;stroke:#00ccff;stroke-width:4.04627;stroke-miterlimit:4;stroke-dasharray:none"
         id="g44">
</g>
      <g
         style="fill:#44aa00;stroke:#00ccff;stroke-width:4.04627;stroke-miterlimit:4;stroke-dasharray:none"
         id="g46">
</g>
      <g
         style="fill:#44aa00;stroke:#00ccff;stroke-width:4.04627;stroke-miterlimit:4;stroke-dasharray:none"
         id="g48">
</g>
      <g
         style="fill:#44aa00;stroke:#00ccff;stroke-width:4.04627;stroke-miterlimit:4;stroke-dasharray:none"
         id="g50">
</g>
      <g
         style="fill:#44aa00;stroke:#00ccff;stroke-width:4.04627;stroke-miterlimit:4;stroke-dasharray:none"
         id="g52">
</g>
    </g>
  </g>
</svg>
